<?xml version="1.0" encoding="UTF-8" standalone="no"?>
<!-- Created with Inkscape (http://www.inkscape.org/) -->
<svg
   xmlns:dc="http://purl.org/dc/elements/1.1/"
   xmlns:cc="http://creativecommons.org/ns#"
   xmlns:rdf="http://www.w3.org/1999/02/22-rdf-syntax-ns#"
   xmlns:svg="http://www.w3.org/2000/svg"
   xmlns="http://www.w3.org/2000/svg"
   xmlns:sodipodi="http://sodipodi.sourceforge.net/DTD/sodipodi-0.dtd"
   xmlns:inkscape="http://www.inkscape.org/namespaces/inkscape"
   width="1052.3622"
   height="744.09448"
   id="svg2"
   sodipodi:version="0.32"
   inkscape:version="0.46"
   version="1.0"
   sodipodi:docname="nando Supports icons.svg"
   inkscape:output_extension="org.inkscape.output.svg.inkscape">
  <defs
     id="defs4">
    <filter
       inkscape:collect="always"
       id="filter3351">
      <feGaussianBlur
         inkscape:collect="always"
         stdDeviation="9.9845785"
         id="feGaussianBlur3353" />
    </filter>
    <filter
       inkscape:collect="always"
       id="filter3555">
      <feGaussianBlur
         inkscape:collect="always"
         stdDeviation="11.464871"
         id="feGaussianBlur3557" />
    </filter>
  </defs>
  <sodipodi:namedview
     id="base"
     pagecolor="#ffffff"
     bordercolor="#666666"
     borderopacity="1.0"
     inkscape:pageopacity="0"
     inkscape:pageshadow="2"
     inkscape:zoom="0.24748737"
     inkscape:cx="-1116.2213"
     inkscape:cy="747.88473"
     inkscape:document-units="px"
     inkscape:current-layer="layer1"
     showgrid="false"
     showborder="false"
     inkscape:window-width="1280"
     inkscape:window-height="968"
     inkscape:window-x="-4"
     inkscape:window-y="-4"
     inkscape:snap-global="true" />
  <metadata
     id="metadata7">
    <rdf:RDF>
      <cc:Work
         rdf:about="">
        <dc:format>image/svg+xml</dc:format>
        <dc:type
           rdf:resource="http://purl.org/dc/dcmitype/StillImage" />
      </cc:Work>
    </rdf:RDF>
  </metadata>
  <g
     inkscape:label="Livello 1"
     inkscape:groupmode="layer"
     id="layer1">
    <g
       id="g3559"
       inkscape:export-filename="C:\Documents and Settings\DARIOSKY\Desktop\cda.png"
       inkscape:export-xdpi="21.24"
       inkscape:export-ydpi="21.24">
      <path
         id="path3202"
         d="M -577.15845,-361.79837 C -714.47435,-361.79837 -825.90855,-250.36415 -825.90855,-113.04836 C -825.90855,24.26741 -714.47435,135.70162 -577.15845,135.70163 C -439.84271,135.70163 -328.37725,24.26741 -328.37724,-113.04836 C -328.37724,-250.36415 -439.84273,-361.79836 -577.15845,-361.79837 z M -577.15845,-187.04837 C -536.31055,-187.04837 -503.15845,-153.89635 -503.15845,-113.04836 C -503.15845,-72.2004 -536.31055,-39.04838 -577.15845,-39.04838 C -618.00645,-39.04838 -651.15845,-72.2004 -651.15845,-113.04836 C -651.15845,-153.89635 -618.00645,-187.04837 -577.15845,-187.04837 z"
         style="fill:#ffffff;fill-opacity:1;fill-rule:nonzero;stroke:none;stroke-width:25;stroke-linecap:butt;stroke-linejoin:miter;marker:none;marker-start:none;marker-mid:none;marker-end:none;stroke-miterlimit:4;stroke-dasharray:none;stroke-dashoffset:0;stroke-opacity:1;visibility:visible;display:inline;overflow:visible;enable-background:accumulate" />
      <path
         sodipodi:nodetypes="cscsscccsssc"
         id="path3204"
         d="M -584.57594,-339.51785 C -721.89184,-339.51784 -819.04022,-219.51221 -819.04022,-82.196428 C -819.04022,-21.881879 -783.25281,27.730235 -747.50451,70.808036 C -703.29311,111.1082 -644.49871,135.71429 -580.00451,135.71429 C -442.68871,135.71429 -331.22321,24.280075 -331.22321,-113.03571 C -331.22321,-173.28692 -369.83467,-231.42836 -405.52237,-274.4866 C -449.75757,-314.866 -520.01044,-339.51785 -584.57594,-339.51785 z M -580.00451,-187.03571 C -539.15651,-187.03571 -506.00451,-153.88369 -506.00451,-113.03571 C -506.00451,-72.187739 -539.15651,-39.035714 -580.00451,-39.035714 C -620.85251,-39.035718 -654.00451,-72.187735 -654.00451,-113.03571 C -654.00451,-153.88369 -620.85251,-187.03571 -580.00451,-187.03571 z"
         style="fill:#dbe1db;fill-opacity:1;fill-rule:nonzero;stroke:none;stroke-width:25;stroke-linecap:butt;stroke-linejoin:miter;marker:none;marker-start:none;marker-mid:none;marker-end:none;stroke-miterlimit:4;stroke-dasharray:none;stroke-dashoffset:0;stroke-opacity:1;visibility:visible;display:inline;overflow:visible;enable-background:accumulate;filter:url(#filter3555)" />
      <path
         style="fill:#717173;fill-opacity:1;fill-rule:nonzero;stroke:none;stroke-width:25;stroke-linecap:butt;stroke-linejoin:miter;marker:none;marker-start:none;marker-mid:none;marker-end:none;stroke-miterlimit:4;stroke-dasharray:none;stroke-dashoffset:0;stroke-opacity:1;visibility:visible;display:inline;overflow:visible;enable-background:accumulate;opacity:0.66960352;filter:url(#filter3351)"
         d="M -584.29023,132.85714 C -446.97443,132.85714 -335.50893,21.422933 -335.50893,-115.89286 C -335.50893,-176.14407 -374.12039,-234.2855 -409.80809,-277.34374 C -325.4135,-73.698307 -428.01676,59.321143 -584.29023,132.85714 z"
         id="path3301"
         sodipodi:nodetypes="cscc" />
      <path
         id="path3207"
         d="M -588.58704,-364.65551 C -725.90284,-364.65551 -837.33704,-253.22129 -837.33704,-115.90551 C -837.33704,21.410271 -725.90284,132.84448 -588.58704,132.84449 C -451.27128,132.84449 -339.80578,21.410271 -339.80578,-115.90551 C -339.80578,-253.22129 -451.27128,-364.6555 -588.58704,-364.65551 z M -588.58704,-189.90551 C -547.73908,-189.90551 -514.58708,-156.75349 -514.58708,-115.90551 C -514.58708,-75.057539 -547.73908,-41.905509 -588.58704,-41.905509 C -629.43504,-41.905509 -662.58704,-75.057539 -662.58704,-115.90551 C -662.58704,-156.75349 -629.43504,-189.90551 -588.58704,-189.90551 z"
         style="fill:none;fill-opacity:1;fill-rule:nonzero;stroke:#464646;stroke-width:25;stroke-linecap:butt;stroke-linejoin:miter;marker:none;marker-start:none;marker-mid:none;marker-end:none;stroke-miterlimit:4;stroke-dasharray:none;stroke-dashoffset:0;stroke-opacity:1;visibility:visible;display:inline;overflow:visible;enable-background:accumulate;" />
    </g>
    <path
       style="fill:#80da6d;fill-opacity:1;stroke:#464646;stroke-width:20;stroke-miterlimit:4;stroke-dasharray:none;stroke-opacity:1"
       d="M -571.25535,90.481007 C -540.95641,92.209652 -540.47354,76.471277 -541.14851,42.197407 C -541.82347,7.9235371 -549.58733,-61.625183 -553.64638,-113.54934 C -522.28303,-129.7303 -486.04512,-129.88908 -452.62342,-139.43452 C -412.44077,-147.55564 -372.10108,-154.99511 -332.25205,-164.67311 C -321.14734,-73.220163 -322.46998,19.097847 -317.37147,110.93747 C -317.43273,146.39967 -359.39469,175.3085 -391.57459,162.6449 C -423.75449,149.98125 -439.56113,103.45109 -422.15539,82.337577 C -399.937,42.889327 -358.74093,88.095297 -357.08108,46.208657 C -357.81036,14.114697 -358.80897,-60.691873 -362.9545,-110.02589 C -416.67039,-98.000393 -466.57609,-89.449613 -510.96082,-84.135413 C -509.40679,-8.3337829 -490.50919,77.851429 -502.67766,142.10129 C -514.84613,206.35115 -576.64181,205.53366 -604.19259,173.93265 C -631.74337,142.33164 -601.55429,88.752362 -571.25535,90.481007 z"
       id="path2412"
       sodipodi:nodetypes="czcccczcccczzz"
       inkscape:export-filename="C:\Documents and Settings\DARIOSKY\Desktop\cda.png"
       inkscape:export-xdpi="21.24"
       inkscape:export-ydpi="21.24" />
    <g
       id="g3286"
       transform="matrix(4.6558165,0,0,4.6558165,4109.1018,-1147.5355)"
       inkscape:export-filename="C:\Documents and Settings\DARIOSKY\Desktop\hd.png"
       inkscape:export-xdpi="22"
       inkscape:export-ydpi="22">
      <path
         id="path3212"
         d="M -1204.036,278.28757 C -1210.5242,275.55574 -1213.2272,267.91163 -1212.5144,261.30916 C -1212.6908,251.20508 -1212.8671,241.101 -1213.0435,230.99692 C -1211.3587,225.51154 -1208.891,219.51939 -1203.1086,217.29048 C -1195.0774,213.62559 -1186.065,215.7046 -1177.566,215.29055 C -1153.5057,215.51421 -1129.4443,215.58421 -1105.3838,215.79024 C -1100.4457,218.33907 -1095.5606,221.82205 -1094.3206,227.60657 C -1093.0593,233.87524 -1094.336,240.31942 -1094.0399,246.66893 C -1094.1545,254.49585 -1094.2692,262.32277 -1094.3838,270.14969 C -1097.7371,274.6178 -1101.8095,280.42972 -1108.1357,279.88917 C -1138.8755,279.84338 -1169.636,280.14463 -1200.3838,280.2323 C -1201.6012,279.58406 -1202.8186,278.9358 -1204.036,278.28757 z"
         style="fill:#ffffff;fill-opacity:1" />
      <path
         id="path3230"
         d="M -1202.8833,280.16678 C -1209.2312,277.36165 -1214.0441,270.5838 -1212.8838,263.46843 C -1212.8838,251.34312 -1212.8838,239.21781 -1212.8838,227.0925 C -1210.9552,220.98938 -1205.518,214.84545 -1198.5417,215.76321 C -1167.114,215.58777 -1135.6864,215.41233 -1104.2587,215.23689 C -1097.0092,218.61382 -1091.782,226.64356 -1092.873,234.74903 C -1093.0792,246.4289 -1093.1906,258.11018 -1093.3838,269.79025 C -1095.7489,274.48543 -1099.1625,279.05791 -1104.5235,280.3905 C -1110.6147,282.38564 -1117.089,280.76705 -1123.3504,281.26749 C -1149.0282,281.2328 -1174.706,281.19813 -1200.3838,281.16348 C -1201.217,280.83128 -1202.0501,280.49898 -1202.8833,280.16678 z M -1118.7018,268.79025 C -1114.5559,266.02189 -1122.813,257.22258 -1122.279,264.61284 C -1124.9351,269.64817 -1132.3761,265.32111 -1136.9681,266.79025 C -1158.9401,266.79025 -1180.9122,266.79025 -1202.8842,266.79025 C -1203.5344,273.46666 -1194.8236,270.90601 -1190.7534,271.29025 C -1167.1159,271.29025 -1143.4784,271.29025 -1119.8409,271.29025 C -1119.4612,270.45694 -1119.0815,269.62355 -1118.7018,268.79025 z M -1119.0837,258.09024 C -1113.9933,255.13213 -1122.541,246.92587 -1122.9157,254.31485 C -1128.1184,255.71255 -1133.5647,254.14377 -1138.8706,254.79024 C -1160.2085,254.79024 -1181.5463,254.79024 -1202.8842,254.79024 C -1202.3311,261.59428 -1193.7992,258.79504 -1189.238,259.29025 C -1166.2533,259.29025 -1143.2685,259.29025 -1120.2838,259.29025 L -1119.6838,258.69022 L -1119.0837,258.09024 L -1119.0837,258.09024 z M -1176.0837,237.05684 C -1174.5077,234.83013 -1178.8772,228.81956 -1177.8406,234.17822 C -1176.4236,241.39108 -1185.8824,243.34923 -1190.7013,240.01646 C -1193.2032,241.9411 -1185.6031,244.33616 -1183.3656,243.84798 C -1178.8907,244.17426 -1174.0269,242.39458 -1176.0837,237.05684 z"
         style="fill:#e1e1e1" />
      <path
         id="path3228"
         d="M -1203.4827,279.3848 C -1209.8346,277.40819 -1213.4311,270.38986 -1212.4767,264.00185 C -1212.6468,251.58086 -1212.8169,239.15988 -1212.9868,226.73889 C -1209.6533,220.80694 -1204.1195,214.38001 -1196.5935,215.18781 C -1173.1569,215.44936 -1149.7162,215.19116 -1126.2778,215.29024 C -1119.2377,215.40519 -1112.128,215.06057 -1105.1313,215.46214 C -1098.2891,217.73481 -1092.4501,224.56569 -1093.2955,232.05052 C -1093.1289,242.75679 -1092.7988,253.46086 -1092.7742,264.16907 C -1093.8514,271.29166 -1097.9509,279.04994 -1105.5792,280.60985 C -1112.7852,281.97816 -1120.1782,280.9928 -1127.4669,281.27436 C -1151.4392,281.25056 -1175.4115,281.26452 -1199.3838,281.24631 C -1200.7501,280.62583 -1202.1165,280.00532 -1203.4827,279.3848 z M -1117.0111,272.19421 C -1111.1655,267.13898 -1113.1089,258.80647 -1112.8865,252.01657 C -1113.0154,244.43547 -1112.6353,236.76844 -1113.0821,229.24098 C -1115.1893,223.39888 -1121.8642,219.94466 -1127.8687,221.2908 C -1151.3738,221.29311 -1174.8788,221.29542 -1198.3838,221.29771 C -1204.7757,223.23338 -1207.773,230.52064 -1206.9378,236.74642 C -1206.8709,246.45383 -1206.5327,256.16379 -1206.4845,265.86731 C -1205.5875,272.56097 -1198.2666,275.45397 -1192.259,274.34225 C -1167.9266,274.19753 -1143.5936,274.34856 -1119.2609,274.29025 C -1118.511,273.59153 -1117.761,272.89289 -1117.0111,272.19421 z M -1202.5271,265.7775 C -1202.9449,259.03871 -1193.8453,261.6741 -1189.6803,261.29025 C -1167.8298,261.29025 -1145.9792,261.29025 -1124.1287,261.29025 C -1118.3578,265.42695 -1126.847,269.62623 -1130.8127,267.29025 C -1154.524,267.29025 -1178.2354,267.29025 -1201.9467,267.29025 L -1202.237,266.53388 L -1202.5271,265.7775 L -1202.5271,265.7775 z M -1202.217,254.62357 C -1204.5802,247.46204 -1194.1084,249.29755 -1189.9767,249.28555 C -1168.0273,249.30316 -1146.078,249.28195 -1124.1287,249.29024 C -1118.3647,253.40866 -1126.8203,257.63103 -1130.7856,255.29024 C -1154.3739,255.29024 -1177.9622,255.29024 -1201.5505,255.29024 L -1202.217,254.62357 L -1202.217,254.62357 z M -1195.2288,242.4615 C -1198.4968,237.63157 -1198.4816,227.01162 -1191.0798,226.50079 C -1185.9443,226.28731 -1178.1816,224.38421 -1175.2402,229.65269 C -1174.0819,231.84363 -1175.5008,239.22837 -1175.2717,238.13139 C -1174.5543,235.81359 -1177.8428,228.75182 -1178.8163,233.66968 C -1177.3988,239.16084 -1183.298,241.92121 -1187.7463,240.26653 C -1189.4169,239.49207 -1193.6884,238.09656 -1191.0324,241.39294 C -1186.0713,245.54746 -1193.8759,245.27891 -1195.2288,242.4615 z"
         style="fill:#cfcfcf" />
      <path
         id="path3226"
         d="M -1200.4047,280.38 C -1207.0596,279.00149 -1212.376,273.22719 -1212.8649,266.41042 C -1213.3165,260.17338 -1212.434,253.92591 -1212.701,247.677 C -1212.5953,240.26165 -1212.4895,232.84629 -1212.3838,225.43094 C -1209.0304,220.9623 -1204.9592,215.15471 -1198.6343,215.68659 C -1167.9106,215.69543 -1137.1666,215.35786 -1106.4351,215.23346 C -1100.3597,217.28793 -1093.6199,222.32404 -1094.3166,229.48021 C -1094.1384,242.93484 -1093.9605,256.38946 -1093.7825,269.84409 C -1096.9214,276.03153 -1103.1522,281.83991 -1110.591,280.80911 C -1139.5219,280.91388 -1168.4529,281.01866 -1197.3838,281.12344 C -1198.3907,280.8756 -1199.3978,280.62779 -1200.4047,280.38 z M -1115.8008,271.52448 C -1110.6577,267.43836 -1113.7039,260.1982 -1112.8838,254.63115 C -1112.8838,246.14035 -1112.8838,237.64955 -1112.8838,229.15875 C -1114.721,224.11101 -1119.5629,219.97883 -1125.1659,221.33153 C -1150.0613,221.31778 -1174.9568,221.304 -1199.8522,221.29024 C -1205.5836,224.03614 -1207.8008,231.10199 -1206.5228,237.01977 C -1206.6621,246.94327 -1206.8015,256.86676 -1206.941,266.79025 C -1205.0784,272.69405 -1198.5099,276.10003 -1192.5547,275.08835 C -1167.942,275.10468 -1143.3302,274.85491 -1118.7178,274.79025 C -1117.7454,273.70169 -1116.7731,272.61307 -1115.8008,271.52448 z M -1201.8474,265.83405 C -1203.2863,259.47404 -1193.1885,263.23308 -1189.5609,262.29025 C -1167.4066,262.29025 -1145.2522,262.29025 -1123.0978,262.29025 C -1120.8166,269.49361 -1131.5924,267.12058 -1135.7515,267.29025 C -1157.3807,267.29025 -1179.0098,267.29025 -1200.6389,267.29025 L -1201.2431,266.5621 L -1201.8474,265.83405 L -1201.8474,265.83405 z M -1202.5038,253.83813 C -1202.5549,247.3045 -1193.3711,251.42942 -1189.3273,250.29024 C -1167.2508,250.29024 -1145.1743,250.29024 -1123.0978,250.29024 C -1120.6114,257.33823 -1131.3513,255.19112 -1135.3473,255.29024 C -1157.5471,255.29024 -1179.7469,255.29024 -1201.9467,255.29024 L -1202.2253,254.56422 L -1202.5038,253.83813 L -1202.5038,253.83813 z M -1194.8838,242.29024 C -1199.1546,237.71658 -1197.8831,227.0258 -1190.6951,226.47274 C -1185.6207,226.3269 -1176.6716,224.21366 -1175.0262,230.81474 C -1174.1965,235.09838 -1176.8213,232.25715 -1178.2798,231.06616 C -1181.4093,233.08165 -1176.7607,242.10197 -1183.7214,239.96714 C -1187.7546,241.16506 -1193.091,238.12327 -1191.5573,233.42629 C -1192.9931,237.03853 -1190.4302,242.51389 -1190.3527,244.40776 C -1192.1222,244.65911 -1193.945,243.81489 -1194.8838,242.29024 z"
         style="fill:#aaaaaa" />
      <path
         id="path3224"
         d="M -1205.5966,278.04025 C -1211.4044,274.58701 -1213.8282,267.35717 -1212.8879,260.89341 C -1212.7199,249.13851 -1212.5519,237.38362 -1212.3838,225.62872 C -1209.1414,220.72171 -1204.7823,215.46485 -1198.3579,215.38317 C -1187.9962,215.16341 -1177.6137,215.36228 -1167.24,215.29024 C -1146.5532,215.29024 -1125.8664,215.29024 -1105.1796,215.29024 C -1099.3684,218.56569 -1092.9825,223.99592 -1093.8845,231.40032 C -1093.8867,244.19697 -1093.8889,256.99361 -1093.8914,269.79025 C -1096.4821,275.7009 -1102.2567,281.24086 -1109.1752,280.28311 C -1140.2542,280.2855 -1171.3331,280.28788 -1202.412,280.29025 C -1203.4735,279.54024 -1204.5351,278.79017 -1205.5966,278.04025 z M -1105.3285,273.07651 C -1098.9063,270.59611 -1099.7339,262.57903 -1099.8838,256.99039 C -1099.8838,247.43419 -1099.8838,237.87799 -1099.8838,228.32179 C -1102.6491,222.85644 -1109.2567,220.29676 -1115.0733,221.73497 C -1143.391,221.56763 -1171.7088,221.40028 -1200.0265,221.23294 C -1203.3562,224.62485 -1208.3695,227.89144 -1206.8838,233.42282 C -1206.8838,244.89695 -1206.8838,256.37108 -1206.8838,267.84521 C -1204.0332,274.11572 -1196.4475,276.2177 -1190.0958,275.31454 C -1162.8592,275.01982 -1135.6209,274.93964 -1108.3838,274.71283 C -1107.3654,274.16735 -1106.3469,273.62197 -1105.3285,273.07651 z M -1201.6934,264.54025 C -1197.4242,260.26631 -1190.7003,264.29383 -1185.3987,262.79025 C -1164.7363,262.79025 -1144.0738,262.79025 -1123.4113,262.79025 C -1121.8428,269.0749 -1131.1969,265.28409 -1134.6494,266.29025 C -1157.1097,266.29025 -1179.5701,266.29025 -1202.0304,266.29025 L -1201.8619,265.41524 L -1201.6934,264.54025 L -1201.6934,264.54025 z M -1201.5435,253.73479 C -1200.6403,246.99179 -1191.3493,251.70784 -1186.7637,250.35813 C -1165.6371,250.50217 -1144.5104,250.6462 -1123.3838,250.79024 C -1122.4918,257.72052 -1132.1371,253.86543 -1136.1782,254.8766 C -1157.7646,255.02233 -1179.3511,255.16807 -1200.9375,255.31378 L -1201.2405,254.52428 L -1201.5435,253.73479 L -1201.5435,253.73479 z M -1194.4427,242.87085 C -1198.0013,239.07978 -1196.8178,231.91049 -1194.839,227.94611 C -1189.9106,225.08542 -1183.1831,225.80732 -1177.92,227.13057 C -1174.0007,228.45693 -1174.0029,235.10137 -1178.1649,231.23189 C -1181.5256,233.61746 -1176.7185,241.47552 -1183.6969,240.04106 C -1187.6239,240.18461 -1192.4793,239.65356 -1191.2303,234.44872 C -1191.9876,230.5703 -1192.1394,239.5718 -1191.5103,240.87788 C -1190.7412,243.35571 -1190.4168,245.50321 -1193.5821,243.42502 L -1194.4427,242.87085 L -1194.4427,242.87085 z"
         style="fill:#a3a3a3" />
      <path
         id="path3222"
         d="M -1204.894,278.04025 C -1209.4709,274.9631 -1213.6503,270.12881 -1212.4575,264.22986 C -1212.6088,252.08332 -1212.7599,239.93678 -1212.9113,227.79024 C -1210.5447,223.02887 -1207.6967,218.1925 -1202.4128,216.3018 C -1196.6762,214.19761 -1190.4533,215.75877 -1184.4936,215.37428 C -1157.6719,215.51293 -1130.8503,215.65158 -1104.0286,215.79024 C -1099.2098,219.39815 -1093.2397,224.02144 -1093.8838,230.76934 C -1093.8838,243.69762 -1093.8838,256.62589 -1093.8838,269.55417 C -1096.5853,275.49207 -1102.3164,281.23369 -1109.3624,280.29025 C -1140.1043,280.29025 -1170.8461,280.29025 -1201.588,280.29025 C -1202.69,279.54025 -1203.792,278.79016 -1204.894,278.04025 z M -1107.6793,274.25021 C -1100.7919,273.4885 -1098.8852,265.66751 -1099.8838,259.89176 C -1099.9885,249.46574 -1099.6747,238.98583 -1100.0403,228.59341 C -1101.869,222.28647 -1109.3766,220.1917 -1115.2105,221.29024 C -1143.1348,221.29024 -1171.059,221.29024 -1198.9832,221.29024 C -1205.6886,222.73704 -1208.0631,230.67877 -1206.8838,236.70107 C -1206.8838,246.94129 -1206.8838,257.1815 -1206.8838,267.42172 C -1204.7344,273.37065 -1197.8539,276.24655 -1191.8863,275.28248 C -1165.0521,275.28136 -1138.218,275.28024 -1111.3838,275.27908 C -1110.149,274.9361 -1108.9141,274.59317 -1107.6793,274.25021 z M -1194.3109,242.72031 C -1197.8557,238.61622 -1198.2254,230.55665 -1193.6694,227.19331 C -1188.5505,225.67797 -1182.1391,225.35167 -1177.2476,227.57162 C -1173.6509,229.38916 -1174.5621,234.80653 -1178.1649,231.23189 C -1181.5256,233.61746 -1176.7185,241.47552 -1183.6969,240.04106 C -1187.6239,240.18461 -1192.4793,239.65356 -1191.2303,234.44872 C -1191.9965,230.5707 -1192.1443,239.58458 -1191.4982,240.89195 C -1190.664,243.27356 -1190.5715,245.79757 -1193.6344,243.52725 L -1194.3109,242.72031 L -1194.3109,242.72031 z"
         style="fill:#e5f105" />
      <path
         id="path3220"
         d="M -1204.894,278.04025 C -1209.4709,274.9631 -1213.6503,270.12881 -1212.4575,264.22986 C -1212.6088,252.08332 -1212.7599,239.93678 -1212.9113,227.79024 C -1210.5447,223.02887 -1207.6967,218.1925 -1202.4128,216.3018 C -1196.6762,214.19761 -1190.4533,215.75877 -1184.4936,215.37428 C -1157.6719,215.51293 -1130.8503,215.65158 -1104.0286,215.79024 C -1099.2098,219.39815 -1093.2397,224.02144 -1093.8838,230.76934 C -1093.8838,243.69762 -1093.8838,256.62589 -1093.8838,269.55417 C -1096.5853,275.49207 -1102.3164,281.23369 -1109.3624,280.29025 C -1140.1043,280.29025 -1170.8461,280.29025 -1201.588,280.29025 C -1202.69,279.54025 -1203.792,278.79016 -1204.894,278.04025 z M -1107.6793,274.25021 C -1100.7919,273.4885 -1098.8852,265.66751 -1099.8838,259.89176 C -1099.9885,249.46574 -1099.6747,238.98583 -1100.0403,228.59341 C -1101.869,222.28647 -1109.3766,220.1917 -1115.2105,221.29024 C -1143.1348,221.29024 -1171.059,221.29024 -1198.9832,221.29024 C -1205.6886,222.73704 -1208.0631,230.67877 -1206.8838,236.70107 C -1206.8838,246.94129 -1206.8838,257.1815 -1206.8838,267.42172 C -1204.7344,273.37065 -1197.8539,276.24655 -1191.8863,275.28248 C -1165.0521,275.28136 -1138.218,275.28024 -1111.3838,275.27908 C -1110.149,274.9361 -1108.9141,274.59317 -1107.6793,274.25021 z M -1194.3109,242.72031 C -1197.8557,238.61622 -1198.2254,230.55665 -1193.6694,227.19331 C -1188.5602,225.66362 -1182.1902,225.38088 -1177.2855,227.55067 C -1173.8656,228.61236 -1174.3528,235.26887 -1177.8056,231.08156 C -1182.4706,229.97414 -1190.9285,228.28452 -1192.1122,234.77681 C -1193.8776,238.05774 -1189.3382,242.76852 -1190.8286,244.46126 C -1192.1207,244.456 -1193.674,243.92735 -1194.3109,242.72031 z"
         style="fill:#71b38c" />
      <path
         id="path3218"
         d="M -1204.894,278.04025 C -1209.4709,274.9631 -1213.6503,270.12881 -1212.4575,264.22986 C -1212.6088,252.08332 -1212.7599,239.93678 -1212.9113,227.79024 C -1210.5447,223.02887 -1207.6967,218.1925 -1202.4128,216.3018 C -1196.6762,214.19761 -1190.4533,215.75877 -1184.4936,215.37428 C -1157.6719,215.51293 -1130.8503,215.65158 -1104.0286,215.79024 C -1099.2098,219.39815 -1093.2397,224.02144 -1093.8838,230.76934 C -1093.8838,243.69762 -1093.8838,256.62589 -1093.8838,269.55417 C -1096.5853,275.49207 -1102.3164,281.23369 -1109.3624,280.29025 C -1140.1043,280.29025 -1170.8461,280.29025 -1201.588,280.29025 C -1202.69,279.54025 -1203.792,278.79016 -1204.894,278.04025 z M -1107.6793,274.25021 C -1100.7919,273.4885 -1098.8852,265.66751 -1099.8838,259.89176 C -1099.9885,249.46574 -1099.6747,238.98583 -1100.0403,228.59341 C -1101.869,222.28647 -1109.3766,220.1917 -1115.2105,221.29024 C -1143.1348,221.29024 -1171.059,221.29024 -1198.9832,221.29024 C -1205.6886,222.73704 -1208.0631,230.67877 -1206.8838,236.70107 C -1206.8838,246.94129 -1206.8838,257.1815 -1206.8838,267.42172 C -1204.7344,273.37065 -1197.8539,276.24655 -1191.8863,275.28248 C -1165.0521,275.28136 -1138.218,275.28024 -1111.3838,275.27908 C -1110.149,274.9361 -1108.9141,274.59317 -1107.6793,274.25021 z M -1192.8838,243.00037 C -1197.3918,240.09283 -1196.3626,232.11797 -1194.3445,228.21483 C -1190.0623,224.7189 -1184.1832,226.47035 -1179.2218,226.89113 C -1175.9568,226.58401 -1173.7554,234.02532 -1175.3107,232.7981 C -1178.4257,228.4444 -1185.4582,230.28115 -1189.7892,230.90267 C -1194.1784,233.9644 -1191.2664,240.81438 -1191.1205,243.92763 C -1191.7792,243.75018 -1192.2447,243.21786 -1192.8838,243.00037 z"
         style="fill:#8a8a8a" />
      <path
         id="path3216"
         d="M -1204.9858,278.03217 C -1211.5368,274.1621 -1213.5219,265.86487 -1212.8838,258.74734 C -1212.8838,248.69983 -1212.8838,238.65232 -1212.8838,228.60481 C -1210.5847,223.4963 -1207.7887,218.2261 -1202.0656,216.43646 C -1195.9941,214.12604 -1189.3783,215.72266 -1183.0522,215.2981 C -1157.8294,215.31011 -1132.6066,215.32213 -1107.3838,215.33417 C -1101.8898,217.36813 -1095.3657,220.61585 -1094.5524,227.12129 C -1093.7435,232.99728 -1094.6329,238.94864 -1094.1103,244.85125 C -1093.998,252.67463 -1093.8857,260.498 -1093.7733,268.32138 C -1096.2139,273.83949 -1100.3397,279.64718 -1106.9163,280.11671 C -1113.9151,280.63625 -1120.9531,280.09163 -1127.9733,280.29025 C -1152.5116,280.29025 -1177.0498,280.29025 -1201.588,280.29025 C -1202.7206,279.53754 -1203.8532,278.78479 -1204.9858,278.03217 z M -1105.5258,273.79053 C -1098.7741,271.82864 -1098.7426,263.64046 -1099.2212,257.93115 C -1099.1877,248.76939 -1098.3406,239.55831 -1099.1646,230.42479 C -1100.2136,224.89713 -1105.6901,219.91166 -1111.5328,221.29024 C -1141.3677,221.29024 -1171.2027,221.29024 -1201.0376,221.29024 C -1206.6317,224.36598 -1207.9581,231.5263 -1206.8838,237.33745 C -1206.8838,247.56514 -1206.8838,257.79282 -1206.8838,268.02051 C -1204.1837,273.93154 -1197.0522,276.42146 -1190.9617,275.17396 C -1163.5365,275.2127 -1136.1114,275.25147 -1108.6862,275.29025 C -1107.6327,274.79034 -1106.5792,274.29044 -1105.5258,273.79053 z M -1192.8838,243.00037 C -1197.3918,240.09283 -1196.3626,232.11797 -1194.3445,228.21483 C -1190.0623,224.7189 -1184.1832,226.47035 -1179.2218,226.89113 C -1175.9568,226.58401 -1173.7554,234.02532 -1175.3107,232.7981 C -1178.4257,228.4444 -1185.4582,230.28115 -1189.7892,230.90267 C -1194.1784,233.9644 -1191.2664,240.81438 -1191.1205,243.92763 C -1191.7792,243.75018 -1192.2447,243.21786 -1192.8838,243.00037 z"
         style="fill:#000000;fill-opacity:1" />
      <path
         id="path3210"
         d="M -1194.6838,242.09024 C -1197.0478,237.37973 -1197.675,226.99341 -1190.1921,227.40268 C -1185.2083,227.74153 -1176.9483,225.60775 -1175.2687,231.96338 C -1179.7367,229.54022 -1186.2317,229.32224 -1191.0672,231.47593 C -1195.7687,234.07913 -1190.0625,241.42466 -1192.3196,243.24412 C -1193.1753,243.06481 -1194.119,242.82699 -1194.6838,242.09024 z"
         style="fill:#028634" />
    </g>
    <g
       id="g3565"
       transform="translate(-1320,71.428571)"
       inkscape:export-filename="C:\Documents and Settings\DARIOSKY\Desktop\cd.png"
       inkscape:export-xdpi="22"
       inkscape:export-ydpi="22">
      <path
         style="fill:#ffffff;fill-opacity:1;fill-rule:nonzero;stroke:none;stroke-width:25;stroke-linecap:butt;stroke-linejoin:miter;marker:none;marker-start:none;marker-mid:none;marker-end:none;stroke-miterlimit:4;stroke-dasharray:none;stroke-dashoffset:0;stroke-opacity:1;visibility:visible;display:inline;overflow:visible;enable-background:accumulate"
         d="M -577.15845,-361.79837 C -714.47435,-361.79837 -825.90855,-250.36415 -825.90855,-113.04836 C -825.90855,24.26741 -714.47435,135.70162 -577.15845,135.70163 C -439.84271,135.70163 -328.37725,24.26741 -328.37724,-113.04836 C -328.37724,-250.36415 -439.84273,-361.79836 -577.15845,-361.79837 z M -577.15845,-187.04837 C -536.31055,-187.04837 -503.15845,-153.89635 -503.15845,-113.04836 C -503.15845,-72.2004 -536.31055,-39.04838 -577.15845,-39.04838 C -618.00645,-39.04838 -651.15845,-72.2004 -651.15845,-113.04836 C -651.15845,-153.89635 -618.00645,-187.04837 -577.15845,-187.04837 z"
         id="path3567" />
      <path
         style="fill:#dbe1db;fill-opacity:1;fill-rule:nonzero;stroke:none;stroke-width:25;stroke-linecap:butt;stroke-linejoin:miter;marker:none;marker-start:none;marker-mid:none;marker-end:none;stroke-miterlimit:4;stroke-dasharray:none;stroke-dashoffset:0;stroke-opacity:1;visibility:visible;display:inline;overflow:visible;filter:url(#filter3555);enable-background:accumulate"
         d="M -584.57594,-339.51785 C -721.89184,-339.51784 -819.04022,-219.51221 -819.04022,-82.196428 C -819.04022,-21.881879 -783.25281,27.730235 -747.50451,70.808036 C -703.29311,111.1082 -644.49871,135.71429 -580.00451,135.71429 C -442.68871,135.71429 -331.22321,24.280075 -331.22321,-113.03571 C -331.22321,-173.28692 -369.83467,-231.42836 -405.52237,-274.4866 C -449.75757,-314.866 -520.01044,-339.51785 -584.57594,-339.51785 z M -580.00451,-187.03571 C -539.15651,-187.03571 -506.00451,-153.88369 -506.00451,-113.03571 C -506.00451,-72.187739 -539.15651,-39.035714 -580.00451,-39.035714 C -620.85251,-39.035718 -654.00451,-72.187735 -654.00451,-113.03571 C -654.00451,-153.88369 -620.85251,-187.03571 -580.00451,-187.03571 z"
         id="path3569"
         sodipodi:nodetypes="cscsscccsssc" />
      <path
         sodipodi:nodetypes="cscc"
         id="path3571"
         d="M -584.29023,132.85714 C -446.97443,132.85714 -335.50893,21.422933 -335.50893,-115.89286 C -335.50893,-176.14407 -374.12039,-234.2855 -409.80809,-277.34374 C -325.4135,-73.698307 -428.01676,59.321143 -584.29023,132.85714 z"
         style="opacity:0.66960353;fill:#717173;fill-opacity:1;fill-rule:nonzero;stroke:none;stroke-width:25;stroke-linecap:butt;stroke-linejoin:miter;marker:none;marker-start:none;marker-mid:none;marker-end:none;stroke-miterlimit:4;stroke-dasharray:none;stroke-dashoffset:0;stroke-opacity:1;visibility:visible;display:inline;overflow:visible;filter:url(#filter3351);enable-background:accumulate" />
      <path
         style="fill:none;fill-opacity:1;fill-rule:nonzero;stroke:#464646;stroke-width:25;stroke-linecap:butt;stroke-linejoin:miter;marker:none;marker-start:none;marker-mid:none;marker-end:none;stroke-miterlimit:4;stroke-dasharray:none;stroke-dashoffset:0;stroke-opacity:1;visibility:visible;display:inline;overflow:visible;enable-background:accumulate"
         d="M -588.58704,-364.65551 C -725.90284,-364.65551 -837.33704,-253.22129 -837.33704,-115.90551 C -837.33704,21.410271 -725.90284,132.84448 -588.58704,132.84449 C -451.27128,132.84449 -339.80578,21.410271 -339.80578,-115.90551 C -339.80578,-253.22129 -451.27128,-364.6555 -588.58704,-364.65551 z M -588.58704,-189.90551 C -547.73908,-189.90551 -514.58708,-156.75349 -514.58708,-115.90551 C -514.58708,-75.057539 -547.73908,-41.905509 -588.58704,-41.905509 C -629.43504,-41.905509 -662.58704,-75.057539 -662.58704,-115.90551 C -662.58704,-156.75349 -629.43504,-189.90551 -588.58704,-189.90551 z"
         id="path3573" />
    </g>
    <g
       id="g3589"
       inkscape:export-filename="C:\Documents and Settings\DARIOSKY\Desktop\dvd.png"
       inkscape:export-xdpi="22"
       inkscape:export-ydpi="22">
      <path
         id="path3577"
         d="M -1840.0156,458.20163 C -1977.3314,458.20163 -2088.7656,569.63585 -2088.7656,706.95164 C -2088.7656,844.26741 -1977.3314,955.70162 -1840.0156,955.70163 C -1702.6998,955.70163 -1591.2343,844.26741 -1591.2343,706.95164 C -1591.2343,569.63585 -1702.6998,458.20164 -1840.0156,458.20163 z M -1840.0156,632.95163 C -1799.1676,632.95163 -1766.0156,666.10365 -1766.0156,706.95164 C -1766.0156,747.7996 -1799.1676,780.95162 -1840.0156,780.95162 C -1880.8636,780.95162 -1914.0156,747.7996 -1914.0156,706.95164 C -1914.0156,666.10365 -1880.8636,632.95163 -1840.0156,632.95163 z"
         style="fill:#ffffff;fill-opacity:1;fill-rule:nonzero;stroke:none;stroke-width:25;stroke-linecap:butt;stroke-linejoin:miter;marker:none;marker-start:none;marker-mid:none;marker-end:none;stroke-miterlimit:4;stroke-dasharray:none;stroke-dashoffset:0;stroke-opacity:1;visibility:visible;display:inline;overflow:visible;enable-background:accumulate" />
      <path
         sodipodi:nodetypes="cscsscccsssc"
         id="path3579"
         d="M -1847.433,480.48215 C -1984.7489,480.48216 -2081.8973,600.48779 -2081.8973,737.80357 C -2081.8973,798.11812 -2046.1099,847.73023 -2010.3616,890.80804 C -1966.1502,931.1082 -1907.3558,955.71429 -1842.8616,955.71429 C -1705.5458,955.71429 -1594.0803,844.28008 -1594.0803,706.96429 C -1594.0803,646.71308 -1632.6918,588.57164 -1668.3795,545.5134 C -1712.6147,505.134 -1782.8675,480.48215 -1847.433,480.48215 z M -1842.8616,632.96429 C -1802.0136,632.96429 -1768.8616,666.11631 -1768.8616,706.96429 C -1768.8616,747.81226 -1802.0136,780.96429 -1842.8616,780.96429 C -1883.7096,780.96428 -1916.8616,747.81227 -1916.8616,706.96429 C -1916.8616,666.11631 -1883.7096,632.96429 -1842.8616,632.96429 z"
         style="fill:#dbe188;fill-opacity:1;fill-rule:nonzero;stroke:none;stroke-width:25;stroke-linecap:butt;stroke-linejoin:miter;marker:none;marker-start:none;marker-mid:none;marker-end:none;stroke-miterlimit:4;stroke-dasharray:none;stroke-dashoffset:0;stroke-opacity:1;visibility:visible;display:inline;overflow:visible;filter:url(#filter3555);enable-background:accumulate" />
      <path
         style="opacity:0.66960353;fill:#717173;fill-opacity:1;fill-rule:nonzero;stroke:none;stroke-width:25;stroke-linecap:butt;stroke-linejoin:miter;marker:none;marker-start:none;marker-mid:none;marker-end:none;stroke-miterlimit:4;stroke-dasharray:none;stroke-dashoffset:0;stroke-opacity:1;visibility:visible;display:inline;overflow:visible;filter:url(#filter3351);enable-background:accumulate"
         d="M -1847.1473,952.85714 C -1709.8315,952.85714 -1598.366,841.42293 -1598.366,704.10714 C -1598.366,643.85593 -1636.9775,585.7145 -1672.6652,542.65626 C -1588.2706,746.30169 -1690.8739,879.32114 -1847.1473,952.85714 z"
         id="path3581"
         sodipodi:nodetypes="cscc" />
      <path
         id="path3583"
         d="M -1851.4441,455.34449 C -1988.7599,455.34449 -2100.1941,566.77871 -2100.1941,704.09449 C -2100.1941,841.41027 -1988.7599,952.84448 -1851.4441,952.84449 C -1714.1284,952.84449 -1602.6629,841.41027 -1602.6629,704.09449 C -1602.6629,566.77871 -1714.1284,455.3445 -1851.4441,455.34449 z M -1851.4441,630.09449 C -1810.5962,630.09449 -1777.4442,663.24651 -1777.4442,704.09449 C -1777.4442,744.94246 -1810.5962,778.09449 -1851.4441,778.09449 C -1892.2921,778.09449 -1925.4441,744.94246 -1925.4441,704.09449 C -1925.4441,663.24651 -1892.2921,630.09449 -1851.4441,630.09449 z"
         style="fill:none;fill-opacity:1;fill-rule:nonzero;stroke:#464646;stroke-width:25;stroke-linecap:butt;stroke-linejoin:miter;marker:none;marker-start:none;marker-mid:none;marker-end:none;stroke-miterlimit:4;stroke-dasharray:none;stroke-dashoffset:0;stroke-opacity:1;visibility:visible;display:inline;overflow:visible;enable-background:accumulate" />
    </g>
    <g
       id="g3595"
       transform="translate(934.28571,17.142857)"
       inkscape:export-filename="C:\Documents and Settings\DARIOSKY\Desktop\dvdv.png"
       inkscape:export-xdpi="22.049999"
       inkscape:export-ydpi="22.049999">
      <path
         style="fill:#ffffff;fill-opacity:1;fill-rule:nonzero;stroke:none;stroke-width:25;stroke-linecap:butt;stroke-linejoin:miter;marker:none;marker-start:none;marker-mid:none;marker-end:none;stroke-miterlimit:4;stroke-dasharray:none;stroke-dashoffset:0;stroke-opacity:1;visibility:visible;display:inline;overflow:visible;enable-background:accumulate"
         d="M -1840.0156,458.20163 C -1977.3314,458.20163 -2088.7656,569.63585 -2088.7656,706.95164 C -2088.7656,844.26741 -1977.3314,955.70162 -1840.0156,955.70163 C -1702.6998,955.70163 -1591.2343,844.26741 -1591.2343,706.95164 C -1591.2343,569.63585 -1702.6998,458.20164 -1840.0156,458.20163 z M -1840.0156,632.95163 C -1799.1676,632.95163 -1766.0156,666.10365 -1766.0156,706.95164 C -1766.0156,747.7996 -1799.1676,780.95162 -1840.0156,780.95162 C -1880.8636,780.95162 -1914.0156,747.7996 -1914.0156,706.95164 C -1914.0156,666.10365 -1880.8636,632.95163 -1840.0156,632.95163 z"
         id="path3597" />
      <path
         style="fill:#dbe188;fill-opacity:1;fill-rule:nonzero;stroke:none;stroke-width:25;stroke-linecap:butt;stroke-linejoin:miter;marker:none;marker-start:none;marker-mid:none;marker-end:none;stroke-miterlimit:4;stroke-dasharray:none;stroke-dashoffset:0;stroke-opacity:1;visibility:visible;display:inline;overflow:visible;filter:url(#filter3555);enable-background:accumulate"
         d="M -1847.433,480.48215 C -1984.7489,480.48216 -2081.8973,600.48779 -2081.8973,737.80357 C -2081.8973,798.11812 -2046.1099,847.73023 -2010.3616,890.80804 C -1966.1502,931.1082 -1907.3558,955.71429 -1842.8616,955.71429 C -1705.5458,955.71429 -1594.0803,844.28008 -1594.0803,706.96429 C -1594.0803,646.71308 -1632.6918,588.57164 -1668.3795,545.5134 C -1712.6147,505.134 -1782.8675,480.48215 -1847.433,480.48215 z M -1842.8616,632.96429 C -1802.0136,632.96429 -1768.8616,666.11631 -1768.8616,706.96429 C -1768.8616,747.81226 -1802.0136,780.96429 -1842.8616,780.96429 C -1883.7096,780.96428 -1916.8616,747.81227 -1916.8616,706.96429 C -1916.8616,666.11631 -1883.7096,632.96429 -1842.8616,632.96429 z"
         id="path3599"
         sodipodi:nodetypes="cscsscccsssc" />
      <path
         sodipodi:nodetypes="cscc"
         id="path3601"
         d="M -1847.1473,952.85714 C -1709.8315,952.85714 -1598.366,841.42293 -1598.366,704.10714 C -1598.366,643.85593 -1636.9775,585.7145 -1672.6652,542.65626 C -1588.2706,746.30169 -1690.8739,879.32114 -1847.1473,952.85714 z"
         style="opacity:0.66960353;fill:#717173;fill-opacity:1;fill-rule:nonzero;stroke:none;stroke-width:25;stroke-linecap:butt;stroke-linejoin:miter;marker:none;marker-start:none;marker-mid:none;marker-end:none;stroke-miterlimit:4;stroke-dasharray:none;stroke-dashoffset:0;stroke-opacity:1;visibility:visible;display:inline;overflow:visible;filter:url(#filter3351);enable-background:accumulate" />
      <path
         style="fill:none;fill-opacity:1;fill-rule:nonzero;stroke:#464646;stroke-width:25;stroke-linecap:butt;stroke-linejoin:miter;marker:none;marker-start:none;marker-mid:none;marker-end:none;stroke-miterlimit:4;stroke-dasharray:none;stroke-dashoffset:0;stroke-opacity:1;visibility:visible;display:inline;overflow:visible;enable-background:accumulate"
         d="M -1851.4441,455.34449 C -1988.7599,455.34449 -2100.1941,566.77871 -2100.1941,704.09449 C -2100.1941,841.41027 -1988.7599,952.84448 -1851.4441,952.84449 C -1714.1284,952.84449 -1602.6629,841.41027 -1602.6629,704.09449 C -1602.6629,566.77871 -1714.1284,455.3445 -1851.4441,455.34449 z M -1851.4441,630.09449 C -1810.5962,630.09449 -1777.4442,663.24651 -1777.4442,704.09449 C -1777.4442,744.94246 -1810.5962,778.09449 -1851.4441,778.09449 C -1892.2921,778.09449 -1925.4441,744.94246 -1925.4441,704.09449 C -1925.4441,663.24651 -1892.2921,630.09449 -1851.4441,630.09449 z"
         id="path3603" />
    </g>
    <text
       xml:space="preserve"
       style="font-size:98.40194702px;font-style:normal;font-variant:normal;font-weight:normal;font-stretch:normal;text-align:start;line-height:100%;writing-mode:lr-tb;text-anchor:start;fill:#a4009b;fill-opacity:1;stroke:#464646;stroke-width:3.61420536;stroke-linecap:butt;stroke-linejoin:miter;stroke-miterlimit:4;stroke-dasharray:none;stroke-opacity:1;font-family:Big Lou;-inkscape-font-specification:Big Lou"
       x="-1095.5671"
       y="907.40302"
       id="text3605"
       sodipodi:linespacing="100%"><tspan
         sodipodi:role="line"
         id="tspan3607"
         x="-1095.5671"
         y="907.40302"
         style="stroke-width:3.61420536">video</tspan></text>
  </g>
</svg>
